<?xml version="1.0" encoding="UTF-8"?>
<svg version="1.1" xmlns="http://www.w3.org/2000/svg" width="330" height="100" viewBox="0 0 330 100" preserveAspectRatio="xMidYMid meet">
<path d="M0 0 C1.69072616 -0.01173486 1.69072616 -0.01173486 3.41560841 -0.02370679 C4.65411391 -0.01701463 5.89261942 -0.01032246 7.1686554 -0.00342751 C8.48415469 -0.00810748 9.79965399 -0.01278745 11.1550169 -0.01760924 C14.80964161 -0.03015701 18.46403193 -0.02393183 22.11865759 -0.01465058 C26.05873056 -0.00787583 29.99876262 -0.01833349 33.93882751 -0.02659035 C41.65867527 -0.03994673 49.37843565 -0.03704148 57.09828687 -0.02835242 C63.37104845 -0.02158377 69.6437855 -0.02065561 75.91654968 -0.02392387 C76.80851915 -0.02438357 77.70048862 -0.02484327 78.61948746 -0.0253169 C80.43137241 -0.02627605 82.24325735 -0.02724869 84.05514228 -0.02823468 C101.05462799 -0.03679415 118.05406521 -0.0269457 135.05354297 -0.01083358 C149.64735799 0.00257011 164.24110143 0.00024218 178.83491516 -0.01358986 C195.77259024 -0.02963584 212.71022278 -0.03597012 229.6479044 -0.02675307 C231.4532121 -0.0257974 233.2585198 -0.02485429 235.06382751 -0.02392387 C235.95212822 -0.02346105 236.84042893 -0.02299822 237.75564784 -0.02252137 C244.02258968 -0.01992853 250.28950459 -0.0243088 256.55644226 -0.03136253 C264.19129879 -0.03976683 271.82606276 -0.03752 279.46090865 -0.0215203 C283.35809662 -0.01362311 287.25513014 -0.01057051 291.15231705 -0.02046776 C295.37225376 -0.03102277 299.59179874 -0.01844015 303.8117218 -0.00342751 C305.05022731 -0.01011967 306.28873281 -0.01681184 307.56476879 -0.02370679 C308.69191957 -0.01588355 309.81907034 -0.00806031 310.9803772 0 C311.9548496 0.00048706 312.92932199 0.00097411 313.93332386 0.00147593 C316.95128132 0.44533802 318.33147954 1.24328226 320.4901886 3.37752342 C320.94405468 6.48974795 321.17077072 8.4247412 319.30164433 11.04142821 C316.81231315 12.87751143 315.1491162 12.75351853 312.06939697 12.75504684 C310.37028215 12.76678171 310.37028215 12.76678171 308.63684177 12.77875364 C307.38695941 12.77206147 306.13707705 12.76536931 304.84931946 12.75847435 C303.51242916 12.76192921 302.1755417 12.76669261 300.83866024 12.77265608 C297.15704315 12.78521953 293.47565831 12.77897161 289.7940402 12.76969743 C285.82670204 12.76292904 281.85940472 12.77337715 277.89207458 12.78163719 C270.11694588 12.79500042 262.34190389 12.79208529 254.56677175 12.78339927 C248.24964131 12.77663329 241.93253524 12.77570129 235.61540222 12.77897072 C234.26848562 12.77966027 234.26848562 12.77966027 232.89435858 12.78036375 C231.07039236 12.78132289 229.24642616 12.78229553 227.42245996 12.78328152 C210.30569342 12.791843 193.18897503 12.78198941 176.07221639 12.76588042 C161.37460228 12.75247655 146.67705924 12.75480443 131.97944641 12.7686367 C114.92532588 12.78467915 97.87124758 12.79101896 80.81712055 12.78179991 C78.9997387 12.78084423 77.18235684 12.77990112 75.36497498 12.77897072 C74.02357803 12.77827648 74.02357803 12.77827648 72.65508217 12.77756821 C66.34309849 12.77497431 60.03114153 12.77935792 53.71916199 12.78640938 C46.03045409 12.79480976 38.34183811 12.79257514 30.65314078 12.77656715 C26.72773029 12.76866465 22.80247323 12.7656263 18.87706375 12.7755146 C15.28709823 12.78442136 11.6974291 12.7795957 8.10749066 12.76358195 C6.18617201 12.75861678 4.26483295 12.76846656 2.34353542 12.77875364 C1.21079221 12.7709304 0.07804899 12.76310715 -1.08901978 12.75504684 C-2.07048949 12.75455979 -3.05195921 12.75407273 -4.06317043 12.75357091 C-6.5098114 12.37752342 -6.5098114 12.37752342 -8.32126713 11.04142821 C-10.19039353 8.4247412 -9.96367748 6.48974795 -9.5098114 3.37752342 C-6.46999209 0.37215896 -4.19202599 0.00209524 0 0 Z " fill="#363536" transform="translate(9.509811401367188,66.62247657775879)"/>
<path d="M0 0 C1.11858398 0.00580078 1.11858398 0.00580078 2.25976562 0.01171875 C3.37254883 0.00591797 3.37254883 0.00591797 4.5078125 0 C10.06899561 0.01008374 10.06899561 0.01008374 12.32226562 1.13671875 C12.36855508 9.05557453 12.40411744 16.97437401 12.42588997 24.89333153 C12.43633837 28.57021225 12.45051665 32.24700058 12.47314453 35.92382812 C12.49483553 39.4705153 12.50682629 43.01711347 12.51202011 46.56386185 C12.51572263 47.91869127 12.52295252 49.27351569 12.53372574 50.62830734 C12.5481901 52.52217632 12.54908211 54.41613439 12.54931641 56.31005859 C12.55375763 57.38927582 12.55819885 58.46849304 12.56277466 59.58041382 C12.32226562 62.13671875 12.32226562 62.13671875 10.32226562 64.13671875 C7.59529339 64.30842778 4.98320095 64.36917555 2.25976562 64.32421875 C1.51404297 64.32357422 0.76832031 64.32292969 0 64.32226562 C-5.53745278 64.27700034 -5.53745278 64.27700034 -6.67773438 63.13671875 C-6.776943 61.20910058 -6.80572802 59.27782521 -6.80712891 57.34765625 C-6.81028107 56.10967285 -6.81343323 54.87168945 -6.81668091 53.59619141 C-6.81489113 52.23470016 -6.81284017 50.87320924 -6.81054688 49.51171875 C-6.81121997 48.12548811 -6.81219004 46.73925758 -6.81344604 45.35302734 C-6.81492277 42.44432453 -6.81276927 39.53565238 -6.80810547 36.62695312 C-6.80240818 32.89075277 -6.80568732 29.15462423 -6.81167793 25.41842651 C-6.81528423 22.55492609 -6.81414465 19.69144282 -6.81155014 16.82794189 C-6.81088106 15.44997143 -6.81170864 14.07199943 -6.81402969 12.69403076 C-6.81655729 10.77128121 -6.81202461 8.84852623 -6.80712891 6.92578125 C-6.80633331 5.82959473 -6.80553772 4.7334082 -6.80471802 3.60400391 C-6.56507017 -1.05234046 -4.07778207 0.00740742 0 0 Z " fill="#317A3A" transform="translate(37.677734375,0.86328125)"/>
<path d="M0 0 C4.23366983 11.9265577 7.82088828 24.02760443 11.3125 36.1875 C11.53677673 36.96284088 11.76105347 37.73818176 11.99212646 38.53701782 C12.64195422 40.78752992 13.28495048 43.03988024 13.92578125 45.29296875 C14.12034409 45.96540619 14.31490692 46.63784363 14.5153656 47.33065796 C15.70491052 51.55518589 16.46702702 55.65646349 17 60 C4.80147499 65.36735101 4.80147499 65.36735101 -1 64 C-3.09585503 57.06579876 -5.18275851 50.1289697 -7.25842285 43.18869591 C-8.22262081 39.96577674 -9.18982387 36.74382539 -10.1640625 33.52392578 C-11.28378449 29.81770311 -12.39289647 26.10844617 -13.5 22.3984375 C-14.0249707 20.67311295 -14.0249707 20.67311295 -14.56054688 18.91293335 C-14.88087891 17.83226593 -15.20121094 16.75159851 -15.53125 15.63818359 C-15.81548828 14.69220306 -16.09972656 13.74622253 -16.39257812 12.77157593 C-17.04982968 9.77263454 -17.10612137 7.06076186 -17 4 C-15.10751181 3.32389577 -13.2108398 2.65949561 -11.3125 2 C-10.25675781 1.62875 -9.20101562 1.2575 -8.11328125 0.875 C-5.21637944 0.0608143 -2.98299377 -0.17709796 0 0 Z " fill="#74AE53" transform="translate(70,0)"/>
<path d="M0 0 C1.12535156 0.00580078 1.12535156 0.00580078 2.2734375 0.01171875 C3.02367187 0.00785156 3.77390625 0.00398438 4.546875 0 C10.14682697 0.01010822 10.14682697 0.01010822 11.2734375 1.13671875 C11.37264613 3.06433692 11.40143115 4.99561229 11.40283203 6.92578125 C11.40598419 8.16376465 11.40913635 9.40174805 11.41238403 10.67724609 C11.41059425 12.03873734 11.4085433 13.40022826 11.40625 14.76171875 C11.40692309 16.14794939 11.40789316 17.53417992 11.40914917 18.92041016 C11.4106259 21.82911297 11.4084724 24.73778512 11.40380859 27.64648438 C11.39811131 31.38268473 11.40139044 35.11881327 11.40738106 38.85501099 C11.41098735 41.71851141 11.40984777 44.58199468 11.40725327 47.44549561 C11.40658418 48.82346607 11.40741176 50.20143807 11.40973282 51.57940674 C11.41226042 53.50215629 11.40772774 55.42491127 11.40283203 57.34765625 C11.40203644 58.44384277 11.40124084 59.5400293 11.40042114 60.66943359 C11.2734375 63.13671875 11.2734375 63.13671875 10.2734375 64.13671875 C7.5961237 64.23653089 4.95039575 64.2755175 2.2734375 64.26171875 C1.14808594 64.26751953 1.14808594 64.26751953 0 64.2734375 C-5.59995197 64.26332928 -5.59995197 64.26332928 -6.7265625 63.13671875 C-6.82577113 61.20910058 -6.85455615 59.27782521 -6.85595703 57.34765625 C-6.85910919 56.10967285 -6.86226135 54.87168945 -6.86550903 53.59619141 C-6.86371925 52.23470016 -6.8616683 50.87320924 -6.859375 49.51171875 C-6.86004809 48.12548811 -6.86101816 46.73925758 -6.86227417 45.35302734 C-6.8637509 42.44432453 -6.8615974 39.53565238 -6.85693359 36.62695312 C-6.85123631 32.89075277 -6.85451544 29.15462423 -6.86050606 25.41842651 C-6.86411235 22.55492609 -6.86297277 19.69144282 -6.86037827 16.82794189 C-6.85970918 15.44997143 -6.86053676 14.07199943 -6.86285782 12.69403076 C-6.86538542 10.77128121 -6.86085274 8.84852623 -6.85595703 6.92578125 C-6.85516144 5.82959473 -6.85436584 4.7334082 -6.85354614 3.60400391 C-6.612987 -1.07004692 -4.08841658 0.00737981 0 0 Z " fill="#125A1B" transform="translate(15.7265625,0.86328125)"/>
<path d="M0 0 C3.3 0 6.6 0 10 0 C9.67 1.65 9.34 3.3 9 5 C8.34 5 7.68 5 7 5 C7 5.99 7 6.98 7 8 C9.97 8 12.94 8 16 8 C16 7.01 16 6.02 16 5 C15.01 4.67 14.02 4.34 13 4 C13 2.68 13 1.36 13 0 C16.3 0 19.6 0 23 0 C23 1.65 23 3.3 23 5 C22.34 5 21.68 5 21 5 C21 8.63 21 12.26 21 16 C21.66 16 22.32 16 23 16 C23 17.65 23 19.3 23 21 C19.7 21 16.4 21 13 21 C13 16 13 16 15 14 C15.33 13.34 15.66 12.68 16 12 C13.03 12 10.06 12 7 12 C7.33 12.99 7.66 13.98 8 15 C8.66 15.33 9.32 15.66 10 16 C10 17.65 10 19.3 10 21 C6.7 21 3.4 21 0 21 C0 19.35 0 17.7 0 16 C0.66 16 1.32 16 2 16 C2 12.37 2 8.74 2 5 C1.34 5 0.68 5 0 5 C0 3.35 0 1.7 0 0 Z " fill="#307839" transform="translate(297,8)"/>
<path d="M0 0 C0 1.98 0 3.96 0 6 C-1.66611905 6.042721 -3.33382885 6.04063832 -5 6 C-5.33 5.67 -5.66 5.34 -6 5 C-8.5 4.83333333 -8.5 4.83333333 -11 5 C-12.41577477 6.18424326 -12.41577477 6.18424326 -12.0625 9.5625 C-12.041875 10.696875 -12.02125 11.83125 -12 13 C-11.01 13 -10.02 13 -9 13 C-9 11.35 -9 9.7 -9 8 C-5.37 8 -1.74 8 2 8 C2 11.96 2 15.92 2 20 C-0.39774745 20.13572155 -2.78775245 20.23436868 -5.1875 20.3125 C-6.19780273 20.3753418 -6.19780273 20.3753418 -7.22851562 20.43945312 C-11.21836318 20.53676648 -12.7989502 20.16454409 -15.92578125 17.60546875 C-19.16470386 13.53699157 -19.43527735 11.22332824 -19 6 C-17.36861406 2.91201947 -15.92494088 0.7335738 -13.1875 -1.4375 C-8.81218969 -2.56257979 -4.2724754 -1.19629311 0 0 Z " fill="#2F7739" transform="translate(291,9)"/>
<path d="M0 0 C2.24893954 -0.10823773 4.49937575 -0.18569645 6.75 -0.25 C8.00296875 -0.29640625 9.2559375 -0.3428125 10.546875 -0.390625 C14 0 14 0 16.47265625 1.78515625 C18 4 18 4 17.6875 7.6875 C17.460625 8.780625 17.23375 9.87375 17 11 C17.33 11.33 17.66 11.66 18 12 C17.75 15.4375 17.75 15.4375 17 19 C13.2632157 21.49118953 11.25548181 21.2065226 6.8125 21.125 C5.54019531 21.10695313 4.26789063 21.08890625 2.95703125 21.0703125 C1.98121094 21.04710938 1.00539062 21.02390625 0 21 C0 19.35 0 17.7 0 16 C0.66 15.67 1.32 15.34 2 15 C2 11.7 2 8.4 2 5 C1.34 5 0.68 5 0 5 C0 3.35 0 1.7 0 0 Z M8 5 C8 5.99 8 6.98 8 8 C9.32 8 10.64 8 12 8 C12 7.01 12 6.02 12 5 C10.68 5 9.36 5 8 5 Z M8 13 C8 13.99 8 14.98 8 16 C9.32 16 10.64 16 12 16 C12 15.01 12 14.02 12 13 C10.68 13 9.36 13 8 13 Z " fill="#2F7639" transform="translate(205,8)"/>
<path d="M0 0 C5.61 0 11.22 0 17 0 C17 2.64 17 5.28 17 8 C15.35 8 13.7 8 12 8 C12 9.65 12 11.3 12 13 C13.65 13 15.3 13 17 13 C17 15.64 17 18.28 17 21 C11.39 21 5.78 21 0 21 C0 19.35 0 17.7 0 16 C0.66 16 1.32 16 2 16 C2 12.37 2 8.74 2 5 C1.34 5 0.68 5 0 5 C0 3.35 0 1.7 0 0 Z M7 5 C7.33 5.99 7.66 6.98 8 8 C9.32 8 10.64 8 12 8 C12 7.01 12 6.02 12 5 C10.35 5 8.7 5 7 5 Z M7 13 C7.33 13.99 7.66 14.98 8 16 C9.32 16 10.64 16 12 16 C12 15.01 12 14.02 12 13 C10.35 13 8.7 13 7 13 Z " fill="#30793A" transform="translate(185,8)"/>
<path d="M0 0 C2.70567626 1.82339052 4.53728718 3.07457436 6 6 C6.54399285 10.539219 6.62289461 13.9544269 4.25 17.9375 C0.79761214 21.10218887 -0.66755022 22 -5.4375 22 C-10.07602238 20.69795863 -11.45328565 19.04478161 -14 15 C-15.32267428 10.72075969 -15.35900665 8.10185002 -13.3125 4.1875 C-9.29017749 -1.35678238 -6.6555502 -1.63469654 0 0 Z M-9 7 C-9.34490322 11.05261287 -9.30163882 12.54754176 -7 16 C-4.54327108 16.66685938 -4.54327108 16.66685938 -2 16 C0.09762034 13.89299553 0.09762034 13.89299553 1 11 C0.33719617 8.56971928 -0.2010972 6.7989028 -2 5 C-5.961168 4.60909667 -5.961168 4.60909667 -9 7 Z " fill="#30783A" transform="translate(240,8)"/>
<path d="M0 0 C2.97 0 5.94 0 9 0 C9 1.65 9 3.3 9 5 C8.34 5 7.68 5 7 5 C7.33 8.63 7.66 12.26 8 16 C9.32 15.67 10.64 15.34 12 15 C12.33 11.7 12.66 8.4 13 5 C12.34 5 11.68 5 11 5 C11 3.35 11 1.7 11 0 C14.3 0 17.6 0 21 0 C20.7834375 0.928125 20.7834375 0.928125 20.5625 1.875 C20.06913345 4.6159253 19.82773794 7.22786902 19.625 10 C19.21688347 14.03315163 18.86694096 16.94192965 16 20 C12.625 21.5 12.625 21.5 9 22 C5.39055533 20.47601225 4.18916735 19.28375102 2 16 C1.8046875 13.30078125 1.8046875 13.30078125 1.875 10.3125 C1.89304688 9.31863281 1.91109375 8.32476562 1.9296875 7.30078125 C1.95289063 6.54152344 1.97609375 5.78226563 2 5 C1.34 5 0.68 5 0 5 C0 3.35 0 1.7 0 0 Z " fill="#2F7739" transform="translate(249,8)"/>
<path d="M0 0 C2.31 0 4.62 0 7 0 C7.67413211 1.91405367 8.3390332 3.83136026 9 5.75 C9.37125 6.81734375 9.7425 7.8846875 10.125 8.984375 C11 12 11 12 11 16 C11.99 16 12.98 16 14 16 C14 17.65 14 19.3 14 21 C10.7 21 7.4 21 4 21 C4 19.35 4 17.7 4 16 C3.34 16 2.68 16 2 16 C2 17.65 2 19.3 2 21 C-0.97 21 -3.94 21 -7 21 C-7 19.35 -7 17.7 -7 16 C-6.34 16 -5.68 16 -5 16 C-4.87753906 15.29488281 -4.75507812 14.58976562 -4.62890625 13.86328125 C-3.96594799 10.84496817 -3.01824425 8.08110558 -1.9375 5.1875 C-1.57527344 4.21167969 -1.21304688 3.23585938 -0.83984375 2.23046875 C-0.42412109 1.12638672 -0.42412109 1.12638672 0 0 Z M3 6 C2.67 7.32 2.34 8.64 2 10 C2.99 9.67 3.98 9.34 5 9 C4.34 8.01 3.68 7.02 3 6 Z " fill="#317C3B" transform="translate(107,8)"/>
<path d="M0 0 C2.24893954 -0.10823773 4.49937575 -0.18569645 6.75 -0.25 C8.00296875 -0.29640625 9.2559375 -0.3428125 10.546875 -0.390625 C14 0 14 0 16.44921875 1.79296875 C18 4 18 4 18.0625 7.5625 C17 11 17 11 14.6875 12.9375 C12 14 12 14 8 14 C8 14.66 8 15.32 8 16 C8.66 16 9.32 16 10 16 C10 17.65 10 19.3 10 21 C6.7 21 3.4 21 0 21 C0 19.35 0 17.7 0 16 C0.66 16 1.32 16 2 16 C2 12.37 2 8.74 2 5 C1.34 5 0.68 5 0 5 C0 3.35 0 1.7 0 0 Z M8 4 C8 5.65 8 7.3 8 9 C9.32 8.67 10.64 8.34 12 8 C12 7.01 12 6.02 12 5 C10.68 4.67 9.36 4.34 8 4 Z " fill="#2F7639" transform="translate(144,8)"/>
<path d="M0 0 C2.24893954 -0.10823773 4.49937575 -0.18569645 6.75 -0.25 C8.00296875 -0.29640625 9.2559375 -0.3428125 10.546875 -0.390625 C14 0 14 0 16.44921875 1.79296875 C18 4 18 4 18.0625 7.5625 C17 11 17 11 14.6875 12.9375 C12 14 12 14 8 14 C8 14.66 8 15.32 8 16 C8.66 16 9.32 16 10 16 C10 17.65 10 19.3 10 21 C6.7 21 3.4 21 0 21 C0 19.35 0 17.7 0 16 C0.66 16 1.32 16 2 16 C2 12.37 2 8.74 2 5 C1.34 5 0.68 5 0 5 C0 3.35 0 1.7 0 0 Z M8 4 C8 5.65 8 7.3 8 9 C9.32 8.67 10.64 8.34 12 8 C12 7.01 12 6.02 12 5 C10.68 4.67 9.36 4.34 8 4 Z " fill="#2F7638" transform="translate(123,8)"/>
<path d="M0 0 C4.31606218 -1.05699482 4.31606218 -1.05699482 7 0 C9.83687915 3.74599486 11.93746355 7.78715959 14 12 C14.33 9.03 14.66 6.06 15 3 C14.34 3 13.68 3 13 3 C13 2.01 13 1.02 13 0 C15.31 0 17.62 0 20 0 C19.83701416 0.57524414 19.67402832 1.15048828 19.50610352 1.74316406 C19.00962472 3.95708107 18.88520256 5.84673797 18.90234375 8.109375 C18.90717773 9.24052734 18.90717773 9.24052734 18.91210938 10.39453125 C18.92048828 11.17183594 18.92886719 11.94914062 18.9375 12.75 C18.94201172 13.54277344 18.94652344 14.33554687 18.95117188 15.15234375 C18.96291435 17.10159508 18.98084854 19.05080738 19 21 C16.73828125 21.375 16.73828125 21.375 14 21 C11.98046875 18.375 11.98046875 18.375 10.1875 15 C9.58292969 13.88625 8.97835938 12.7725 8.35546875 11.625 C7.68451172 10.325625 7.68451172 10.325625 7 9 C6.67 11.97 6.34 14.94 6 18 C6.66 18 7.32 18 8 18 C8 18.99 8 19.98 8 21 C5.36 21 2.72 21 0 21 C0 20.01 0 19.02 0 18 C0.66 18 1.32 18 2 18 C2 13.05 2 8.1 2 3 C1.34 3 0.68 3 0 3 C0 2.01 0 1.02 0 0 Z " fill="#669849" transform="translate(300,42)"/>
<path d="M0 0 C3.3 0 6.6 0 10 0 C10 1.65 10 3.3 10 5 C9.01 5.495 9.01 5.495 8 6 C8 8.97 8 11.94 8 15 C9.32 15.33 10.64 15.66 12 16 C12 14.68 12 13.36 12 12 C13.65 12 15.3 12 17 12 C17 14.97 17 17.94 17 21 C11.39 21 5.78 21 0 21 C0 19.35 0 17.7 0 16 C0.66 16 1.32 16 2 16 C2 12.37 2 8.74 2 5 C1.34 5 0.68 5 0 5 C0 3.35 0 1.7 0 0 Z " fill="#2F7739" transform="translate(165,8)"/>
<path d="M0 0 C5.28 0 10.56 0 16 0 C16 2.31 16 4.62 16 7 C14.68 7 13.36 7 12 7 C12 5.68 12 4.36 12 3 C10.02 3 8.04 3 6 3 C6 4.98 6 6.96 6 9 C7.98 9 9.96 9 12 9 C12 9.99 12 10.98 12 12 C10.02 12 8.04 12 6 12 C6 13.98 6 15.96 6 18 C7.98 18 9.96 18 12 18 C12 16.68 12 15.36 12 14 C13.32 14 14.64 14 16 14 C16 16.31 16 18.62 16 21 C10.72 21 5.44 21 0 21 C0 20.01 0 19.02 0 18 C0.66 18 1.32 18 2 18 C2 13.05 2 8.1 2 3 C1.34 3 0.68 3 0 3 C0 2.01 0 1.02 0 0 Z " fill="#70A74F" transform="translate(138,42)"/>
<path d="M0 0 C10.66839282 -0.76567413 10.66839282 -0.76567413 13.875 1.078125 C15.1875 2.4375 15.1875 2.4375 17 5 C17.33 5.33 17.66 5.66 18 6 C18.43612335 14.86784141 18.43612335 14.86784141 16 18 C11.3969036 22.15763546 5.82019732 21.27521073 0 21 C0 20.01 0 19.02 0 18 C0.66 18 1.32 18 2 18 C2 13.05 2 8.1 2 3 C1.34 3 0.68 3 0 3 C0 2.01 0 1.02 0 0 Z M5 3 C5.33 7.95 5.66 12.9 6 18 C10.62658297 17.3784446 10.62658297 17.3784446 12.8125 15.875 C14.72950563 12.84814901 14.42793633 10.4846244 14 7 C12.45714369 4.45668762 12.45714369 4.45668762 10 3 C8.35 3 6.7 3 5 3 Z " fill="#669949" transform="translate(157,42)"/>
<path d="M0 0 C2.2265625 0.40625 2.2265625 0.40625 5.2265625 2.40625 C7.6995743 6.11576771 8.53970848 8.96131677 8.2265625 13.40625 C6.72373453 17.46388553 5.84497509 18.99397494 2.2265625 21.40625 C-0.86259915 22.00788448 -3.68555068 22.02382736 -6.7734375 21.40625 C-9.99829073 18.58450343 -11.42439223 16.45338582 -12.7734375 12.40625 C-12.7734375 8.02915556 -11.16634721 5.1209137 -8.4375 1.76171875 C-5.7577488 -0.42108329 -3.34039958 -0.13056936 0 0 Z M-6.5234375 4.53125 C-8.30369276 7.20163289 -8.64545338 9.20664696 -8.7734375 12.40625 C-7.87105784 15.29924553 -7.87105784 15.29924553 -5.7734375 17.40625 C-2.87637043 18.65302006 -2.87637043 18.65302006 0.2265625 18.40625 C2.76658263 17.03341577 2.76658263 17.03341577 4.2265625 14.40625 C4.79945832 10.39597923 4.86882451 8.33396179 2.5390625 4.96875 C-0.71722374 2.76855659 -3.13396202 2.35230148 -6.5234375 4.53125 Z " fill="#71A950" transform="translate(288.7734375,41.59375)"/>
<path d="M0 0 C1.65 0 3.3 0 5 0 C5.40992188 1.21558594 5.81984375 2.43117187 6.2421875 3.68359375 C6.78607235 5.26836169 7.33036426 6.85298997 7.875 8.4375 C8.14441406 9.23994141 8.41382813 10.04238281 8.69140625 10.86914062 C8.95566406 11.63291016 9.21992188 12.39667969 9.4921875 13.18359375 C9.85352783 14.24404907 9.85352783 14.24404907 10.22216797 15.32592773 C10.88185759 17.20038805 10.88185759 17.20038805 13 18 C13 18.99 13 19.98 13 21 C10.36 21 7.72 21 5 21 C5 20.01 5 19.02 5 18 C5.66 18 6.32 18 7 18 C6.67 16.68 6.34 15.36 6 14 C3.69 14.33 1.38 14.66 -1 15 C-1 16.98 -1 18.96 -1 21 C-3.31 21 -5.62 21 -8 21 C-8 20.01 -8 19.02 -8 18 C-7.34 18 -6.68 18 -6 18 C-5.83177734 16.97326172 -5.83177734 16.97326172 -5.66015625 15.92578125 C-4.89228607 12.52261695 -3.71586052 9.43256902 -2.4375 6.1875 C-1.75494141 4.44533203 -1.75494141 4.44533203 -1.05859375 2.66796875 C-0.70925781 1.78753906 -0.35992187 0.90710937 0 0 Z M2 5 C1.34 6.98 0.68 8.96 0 11 C1.65 11 3.3 11 5 11 C4.34 9.02 3.68 7.04 3 5 C2.67 5 2.34 5 2 5 Z " fill="#6FA74F" transform="translate(229,42)"/>
<path d="M0 0 C2.64 0 5.28 0 8 0 C8 0.99 8 1.98 8 3 C7.34 3 6.68 3 6 3 C6.33 7.29 6.66 11.58 7 16 C9.31 16.33 11.62 16.66 14 17 C14.33 12.38 14.66 7.76 15 3 C14.34 3 13.68 3 13 3 C13 2.01 13 1.02 13 0 C15.31 0 17.62 0 20 0 C19.83242187 0.56976563 19.66484375 1.13953125 19.4921875 1.7265625 C18.98416703 4.07313325 18.99922965 5.98536327 19.125 8.375 C19.18106054 12.62859369 18.31261998 15.35317619 16 19 C14 21 14 21 10.625 21.3125 C6.88532766 20.99011445 5.55872916 20.65714182 3 18 C1.90493508 14.71480525 1.90039392 12.26336585 1.9375 8.8125 C1.94652344 7.72582031 1.95554688 6.63914062 1.96484375 5.51953125 C1.97644531 4.68808594 1.98804688 3.85664062 2 3 C1.34 3 0.68 3 0 3 C0 2.01 0 1.02 0 0 Z " fill="#73AC52" transform="translate(178,42)"/>
<path d="M0 0 C3 1.3125 3 1.3125 5 3 C5 3.99 5 4.98 5 6 C4.29875 5.855625 3.5975 5.71125 2.875 5.5625 C1.92625 5.376875 0.9775 5.19125 0 5 C-1.03125 4.7525 -2.0625 4.505 -3.125 4.25 C-5.92844564 3.74297757 -5.92844564 3.74297757 -7.875 5 C-9.61178961 8.08762598 -9.37142345 10.5333811 -9 14 C-8.03882095 16.12870693 -8.03882095 16.12870693 -6 17 C-2.35265021 16.77669287 -0.61627165 16.61627165 2 14 C2.99 14 3.98 14 5 14 C4.64978759 16.53903996 4.15988127 17.82093298 2.4375 19.75 C-1.02119619 21.52369035 -4.23802238 21.6867102 -8 21 C-11.44312714 18.8755173 -12.71617547 17.85147359 -14 14 C-14.37066773 8.99598565 -14.09881835 6.01698676 -11 2 C-7.29239383 -0.47173745 -4.29883488 -0.55199047 0 0 Z " fill="#6EA54F" transform="translate(214,42)"/>
<path d="M0 0 C6.27 0 12.54 0 19 0 C19 1.98 19 3.96 19 6 C17.68 6 16.36 6 15 6 C15 5.34 15 4.68 15 4 C13.68 3.67 12.36 3.34 11 3 C11 7.95 11 12.9 11 18 C11.66 18 12.32 18 13 18 C13 18.99 13 19.98 13 21 C10.69 21 8.38 21 6 21 C6 20.01 6 19.02 6 18 C6.66 18 7.32 18 8 18 C8 13.05 8 8.1 8 3 C6.68 3 5.36 3 4 3 C4 3.99 4 4.98 4 6 C2.68 6 1.36 6 0 6 C0 4.02 0 2.04 0 0 Z " fill="#7AB757" transform="translate(243,42)"/>
<path d="M0 0 C0 0.99 0 1.98 0 3 C0.99 3.33 1.98 3.66 3 4 C3 6.64 3 9.28 3 12 C2.01 12 1.02 12 0 12 C0.33 10.02 0.66 8.04 1 6 C0.34 6 -0.32 6 -1 6 C-1.33 7.98 -1.66 9.96 -2 12 C-2.99 12 -3.98 12 -5 12 C-4.67 9.36 -4.34 6.72 -4 4 C-5.32 4.33 -6.64 4.66 -8 5 C-8.33 7.31 -8.66 9.62 -9 12 C-10.32 12 -11.64 12 -13 12 C-12.34 9.36 -11.68 6.72 -11 4 C-11.99 4.33 -12.98 4.66 -14 5 C-14 3.68 -14 2.36 -14 1 C-12.22932584 0.83165067 -10.45845388 0.66538091 -8.6875 0.5 C-7.70136719 0.4071875 -6.71523437 0.314375 -5.69921875 0.21875 C-3 0 -3 0 0 0 Z " fill="#115119" transform="translate(154,86)"/>
<path d="M0 0 C2.64 0 5.28 0 8 0 C8 0.99 8 1.98 8 3 C7.34 3 6.68 3 6 3 C6 7.95 6 12.9 6 18 C6.66 18 7.32 18 8 18 C8 18.99 8 19.98 8 21 C5.36 21 2.72 21 0 21 C0 20.01 0 19.02 0 18 C0.66 18 1.32 18 2 18 C2 13.05 2 8.1 2 3 C1.34 3 0.68 3 0 3 C0 2.01 0 1.02 0 0 Z " fill="#669949" transform="translate(265,42)"/>
<path d="M0 0 C2.31 0 4.62 0 7 0 C7 1.32 7 2.64 7 4 C6.34 4 5.68 4 5 4 C5 8.62 5 13.24 5 18 C5.99 18 6.98 18 8 18 C8 18.99 8 19.98 8 21 C5.36 21 2.72 21 0 21 C0 20.01 0 19.02 0 18 C0.66 18 1.32 18 2 18 C2 13.05 2 8.1 2 3 C1.34 3 0.68 3 0 3 C0 2.01 0 1.02 0 0 Z " fill="#7BB858" transform="translate(300,42)"/>
<path d="M0 0 C5.28 0 10.56 0 16 0 C16 2.31 16 4.62 16 7 C14.68 7 13.36 7 12 7 C12 5.68 12 4.36 12 3 C10.02 3 8.04 3 6 3 C6 4.98 6 6.96 6 9 C5.67 9 5.34 9 5 9 C5 7.35 5 5.7 5 4 C4.34 4 3.68 4 3 4 C3 8.62 3 13.24 3 18 C2.67 18 2.34 18 2 18 C2 13.05 2 8.1 2 3 C1.34 3 0.68 3 0 3 C0 2.01 0 1.02 0 0 Z " fill="#669948" transform="translate(138,42)"/>
<path d="M0 0 C2.35119399 3.52679099 2.21443452 5.02879485 2.125 9.1875 C2.10695312 10.27417969 2.08890625 11.36085938 2.0703125 12.48046875 C2.03550781 13.72763672 2.03550781 13.72763672 2 15 C4.64 14.34 7.28 13.68 10 13 C10 12.34 10 11.68 10 11 C10.99 11 11.98 11 13 11 C13 12.32 13 13.64 13 15 C9.69999258 18.18621406 6.56148472 18.18186342 2.1875 18.1875 C0.45786959 18.13951818 -1.27163534 18.08172652 -3 18 C-3 17.01 -3 16.02 -3 15 C-2.01 15 -1.02 15 0 15 C0 10.05 0 5.1 0 0 Z " fill="#77B255" transform="translate(160,45)"/>
<path d="M0 0 C0.99 0 1.98 0 3 0 C3 1.32 3 2.64 3 4 C4.32 4.33 5.64 4.66 7 5 C7 7.31 7 9.62 7 12 C5.68 12 4.36 12 3 12 C3.33 10.02 3.66 8.04 4 6 C3.34 6 2.68 6 2 6 C1.67 7.98 1.34 9.96 1 12 C0.01 12 -0.98 12 -2 12 C-1.85962479 10.18706911 -1.71255111 8.3746557 -1.5625 6.5625 C-1.48128906 5.55316406 -1.40007812 4.54382813 -1.31640625 3.50390625 C-1 1 -1 1 0 0 Z " fill="#11541A" transform="translate(298,86)"/>
<path d="M0 0 C2.31 0 4.62 0 7 0 C7.625 1.875 7.625 1.875 8 4 C7.34 4.66 6.68 5.32 6 6 C4.68 6 3.36 6 2 6 C2.33 7.32 2.66 8.64 3 10 C1.35 10.33 -0.3 10.66 -2 11 C-1.34 7.37 -0.68 3.74 0 0 Z M3 2 C3 2.66 3 3.32 3 4 C3.66 4 4.32 4 5 4 C5 3.34 5 2.68 5 2 C4.34 2 3.68 2 3 2 Z " fill="#105018" transform="translate(232,87)"/>
<path d="M0 0 C2.31 0 4.62 0 7 0 C8.125 3.75 8.125 3.75 7 6 C5.35 6 3.7 6 2 6 C2.33 7.32 2.66 8.64 3 10 C1.35 10.33 -0.3 10.66 -2 11 C-1.34 7.37 -0.68 3.74 0 0 Z M3 2 C3 2.66 3 3.32 3 4 C3.66 4 4.32 4 5 4 C5 3.34 5 2.68 5 2 C4.34 2 3.68 2 3 2 Z " fill="#105018" transform="translate(173,87)"/>
<path d="M0 0 C3.79557881 0 5.62902617 0.50178941 9 2 C9 3.65 9 5.3 9 7 C5.7 7 2.4 7 -1 7 C-1 2 -1 2 0 0 Z " fill="#2C7035" transform="translate(112,22)"/>
<path d="M0 0 C2.31 0 4.62 0 7 0 C7.6875 2.3125 7.6875 2.3125 8 5 C6.6875 6.6875 6.6875 6.6875 5 8 C4.34 8.66 3.68 9.32 3 10 C1.68 10 0.36 10 -1 10 C-0.67 6.7 -0.34 3.4 0 0 Z M3 2 C3.33 3.32 3.66 4.64 4 6 C4.66 4.68 5.32 3.36 6 2 C5.01 2 4.02 2 3 2 Z " fill="#12571A" transform="translate(312,90)"/>
<path d="M0 0 C0.66 0.99 1.32 1.98 2 3 C1.67 3.33 1.34 3.66 1 4 C2.65 4.33 4.3 4.66 6 5 C6 6.65 6 8.3 6 10 C3.03 10 0.06 10 -3 10 C-3 8.35 -3 6.7 -3 5 C-2.34 5 -1.68 5 -1 5 C-0.67 3.35 -0.34 1.7 0 0 Z " fill="#2D7237" transform="translate(103,19)"/>
<path d="M0 0 C0.99 0 1.98 0 3 0 C3 4.95 3 9.9 3 15 C3.66 15 4.32 15 5 15 C5 15.99 5 16.98 5 18 C2.69 18 0.38 18 -2 18 C-2 17.01 -2 16.02 -2 15 C-1.34 15 -0.68 15 0 15 C0 10.05 0 5.1 0 0 Z " fill="#6EA54E" transform="translate(251,45)"/>
<path d="M0 0 C2.625 -0.1875 2.625 -0.1875 5 0 C5.625 2.3125 5.625 2.3125 6 5 C5.01 6.485 5.01 6.485 4 8 C2.35 7.67 0.7 7.34 -1 7 C-1.625 5.1875 -1.625 5.1875 -2 3 C-1.34 2.01 -0.68 1.02 0 0 Z " fill="#11541A" transform="translate(205,90)"/>
<path d="M0 0 C2.625 0.375 2.625 0.375 5 1 C5 3 5 5 5 7 C0.25 8.125 0.25 8.125 -2 7 C-2.125 4.625 -2.125 4.625 -2 2 C-1.34 1.34 -0.68 0.68 0 0 Z " fill="#115419" transform="translate(183,90)"/>
<path d="M0 0 C2.625 0.375 2.625 0.375 5 1 C5 3 5 5 5 7 C0.25 8.125 0.25 8.125 -2 7 C-2.125 4.625 -2.125 4.625 -2 2 C-1.34 1.34 -0.68 0.68 0 0 Z " fill="#115419" transform="translate(161,90)"/>
<path d="M0 0 C2.64 0 5.28 0 8 0 C8 2.64 8 5.28 8 8 C6.68 7.67 5.36 7.34 4 7 C4.33 5.68 4.66 4.36 5 3 C4.731875 3.639375 4.46375 4.27875 4.1875 4.9375 C3 7 3 7 0 8 C0 5.36 0 2.72 0 0 Z " fill="#12581B" transform="translate(263,90)"/>
<path d="M0 0 C0.94875 0.04125 1.8975 0.0825 2.875 0.125 C2.875 2.765 2.875 5.405 2.875 8.125 C0.54205225 8.16741723 -1.79202567 8.16592937 -4.125 8.125 C-5.125 7.125 -5.125 7.125 -5.3125 4.6875 C-5.02108357 0.70480882 -3.90175738 0.1560703 0 0 Z M-2.125 2.125 C-2.455 3.445 -2.785 4.765 -3.125 6.125 C-2.135 5.795 -1.145 5.465 -0.125 5.125 C-0.125 4.135 -0.125 3.145 -0.125 2.125 C-0.785 2.125 -1.445 2.125 -2.125 2.125 Z " fill="#0F4916" transform="translate(245.125,89.875)"/>
<path d="M0 0 C1.32 0 2.64 0 4 0 C3.34 1.98 2.68 3.96 2 6 C1.34 6 0.68 6 0 6 C-0.33 8.31 -0.66 10.62 -1 13 C-1.99 13.33 -2.98 13.66 -4 14 C-3.814375 12.906875 -3.62875 11.81375 -3.4375 10.6875 C-2.7421932 7.06375867 -2.7421932 7.06375867 -4 4 C-3.34 4 -2.68 4 -2 4 C-1.34 2.68 -0.68 1.36 0 0 Z " fill="#104F18" transform="translate(201,86)"/>
<path d="M0 0 C8.90763766 -0.45293073 8.90763766 -0.45293073 13 3 C13 3.99 13 4.98 13 6 C12.29875 5.855625 11.5975 5.71125 10.875 5.5625 C8.88167724 5.17250207 6.88060691 4.82089711 4.875 4.5 C2 4 2 4 -1 3 C-0.67 2.01 -0.34 1.02 0 0 Z " fill="#73AC52" transform="translate(206,42)"/>
<path d="M0 0 C2.64 0 5.28 0 8 0 C8 0.99 8 1.98 8 3 C7.34 3 6.68 3 6 3 C6 6.96 6 10.92 6 15 C5.67 15 5.34 15 5 15 C5 11.04 5 7.08 5 3 C4.34 3 3.68 3 3 3 C3 6.96 3 10.92 3 15 C2.67 15 2.34 15 2 15 C2 11.04 2 7.08 2 3 C1.34 3 0.68 3 0 3 C0 2.01 0 1.02 0 0 Z " fill="#5F8E44" transform="translate(178,42)"/>
<path d="M0 0 C2.625 0.375 2.625 0.375 5 1 C5 3 5 5 5 7 C0.25 8.125 0.25 8.125 -2 7 C-2.125 4.625 -2.125 4.625 -2 2 C-1.34 1.34 -0.68 0.68 0 0 Z " fill="#115319" transform="translate(275,90)"/>
<path d="M0 0 C1.98 0 3.96 0 6 0 C5.67 2.31 5.34 4.62 5 7 C0.25 8.125 0.25 8.125 -2 7 C-2 6.34 -2 5.68 -2 5 C-1.34 4.67 -0.68 4.34 0 4 C0 2.68 0 1.36 0 0 Z " fill="#105018" transform="translate(290,90)"/>
<path d="M0 0 C0.33 0 0.66 0 1 0 C1.33 4.62 1.66 9.24 2 14 C3.32 14 4.64 14 6 14 C6 14.99 6 15.98 6 17 C3.36 17 0.72 17 -2 17 C-2 16.01 -2 15.02 -2 14 C-1.34 14 -0.68 14 0 14 C0 9.38 0 4.76 0 0 Z " fill="#72AB51" transform="translate(302,46)"/>
<path d="M0 0 C2.64 0 5.28 0 8 0 C8 0.99 8 1.98 8 3 C7.01 3 6.02 3 5 3 C5 7.95 5 12.9 5 18 C4.67 18 4.34 18 4 18 C4 13.05 4 8.1 4 3 C2.68 3 1.36 3 0 3 C0 2.01 0 1.02 0 0 Z " fill="#7BB958" transform="translate(265,42)"/>
<path d="M0 0 C0.78375 0.04125 1.5675 0.0825 2.375 0.125 C2.705 1.115 3.035 2.105 3.375 3.125 C1.725 3.125 0.075 3.125 -1.625 3.125 C-1.295 3.785 -0.965 4.445 -0.625 5.125 C0.365 5.125 1.355 5.125 2.375 5.125 C2.375 5.785 2.375 6.445 2.375 7.125 C-2.375 8.25 -2.375 8.25 -4.625 7.125 C-4.75 4.75 -4.75 4.75 -4.625 2.125 C-2.625 0.125 -2.625 0.125 0 0 Z " fill="#115119" transform="translate(216.625,89.875)"/>
<path d="M0 0 C2 3 2 3 2 5 C1.34 5 0.68 5 0 5 C0.33 6.98 0.66 8.96 1 11 C-0.65 10.67 -2.3 10.34 -4 10 C-3.71872579 8.51882199 -3.42466268 7.04006751 -3.125 5.5625 C-2.96257812 4.73878906 -2.80015625 3.91507812 -2.6328125 3.06640625 C-2.42398438 2.38449219 -2.21515625 1.70257813 -2 1 C-1.34 0.67 -0.68 0.34 0 0 Z " fill="#0F4A17" transform="translate(224,87)"/>
<path d="M0 0 C4 4.75 4 4.75 4 7 C3.01 7.33 2.02 7.66 1 8 C0.67 7.67 0.34 7.34 0 7 C-0.33 9.97 -0.66 12.94 -1 16 C-1.33 16 -1.66 16 -2 16 C-2 11.38 -2 6.76 -2 2 C-1.34 2 -0.68 2 0 2 C0 1.34 0 0.68 0 0 Z " fill="#5C8A42" transform="translate(307,44)"/>
<path d="M0 0 C1 3 1 3 1 5 C0.34 5 -0.32 5 -1 5 C-0.34 6.65 0.32 8.3 1 10 C-0.32 10.33 -1.64 10.66 -3 11 C-3.97608217 8.07175348 -4.08226668 6.04386724 -4 3 C-3.34 3 -2.68 3 -2 3 C-2 2.34 -2 1.68 -2 1 C-1.34 0.67 -0.68 0.34 0 0 Z " fill="#104C17" transform="translate(261,87)"/>
<path d="M0 0 C2.31 0 4.62 0 7 0 C7 0.99 7 1.98 7 3 C6.01 3.33 5.02 3.66 4 4 C4 5.32 4 6.64 4 8 C2.68 8 1.36 8 0 8 C0.185625 7.236875 0.37125 6.47375 0.5625 5.6875 C1.22819173 2.91032625 1.22819173 2.91032625 0 0 Z " fill="#115219" transform="translate(249,90)"/>
<path d="M0 0 C0.28875 0.639375 0.5775 1.27875 0.875 1.9375 C1.82823451 4.15206079 1.82823451 4.15206079 4 5 C4 5.99 4 6.98 4 8 C1.36 8 -1.28 8 -4 8 C-4 7.01 -4 6.02 -4 5 C-3.34 5 -2.68 5 -2 5 C-1.34 3.35 -0.68 1.7 0 0 Z " fill="#6BA04C" transform="translate(238,55)"/>
<path d="M0 0 C1.98 0 3.96 0 6 0 C6 0.99 6 1.98 6 3 C5.34 3 4.68 3 4 3 C3.67 4.65 3.34 6.3 3 8 C2.01 8 1.02 8 0 8 C0 5.36 0 2.72 0 0 Z " fill="#115219" transform="translate(190,90)"/>
<path d="M0 0 C1.98 0 3.96 0 6 0 C6 0.99 6 1.98 6 3 C5.34 3 4.68 3 4 3 C3.67 4.65 3.34 6.3 3 8 C2.01 8 1.02 8 0 8 C0 5.36 0 2.72 0 0 Z " fill="#115219" transform="translate(282,90)"/>
<path d="M0 0 C0.33 1.32 0.66 2.64 1 4 C1.66 4 2.32 4 3 4 C3 4.99 3 5.98 3 7 C0.69 7 -1.62 7 -4 7 C-4 6.01 -4 5.02 -4 4 C-3.34 4 -2.68 4 -2 4 C-2 3.01 -2 2.02 -2 1 C-1.34 0.67 -0.68 0.34 0 0 Z " fill="#76B054" transform="translate(225,56)"/>
<path d="M0 0 C0.66 0 1.32 0 2 0 C2 1.65 2 3.3 2 5 C2.99 5.33 3.98 5.66 5 6 C4.01 6.33 3.02 6.66 2 7 C2 8.98 2 10.96 2 13 C1.34 13 0.68 13 0 13 C0 8.71 0 4.42 0 0 Z " fill="#7EBC5A" transform="translate(141,46)"/>
<path d="M0 0 C0.66 0.99 1.32 1.98 2 3 C0.89131683 5.21736634 -0.49440461 7.03617993 -2 9 C-2.33 8.67 -2.66 8.34 -3 8 C-3.99 9.485 -3.99 9.485 -5 11 C-5 10.01 -5 9.02 -5 8 C-5.99 8 -6.98 8 -8 8 C-7.67 7.01 -7.34 6.02 -7 5 C-7 5.66 -7 6.32 -7 7 C-6.01 7 -5.02 7 -4 7 C-4 6.01 -4 5.02 -4 4 C-3.01 4 -2.02 4 -1 4 C-0.67 2.68 -0.34 1.36 0 0 Z " fill="#2B6D34" transform="translate(113,8)"/>
<path d="M0 0 C1.32 0 2.64 0 4 0 C4 2.64 4 5.28 4 8 C2.68 8 1.36 8 0 8 C0 5.36 0 2.72 0 0 Z " fill="#115319" transform="translate(306,90)"/>
<path d="M0 0 C0 0.99 0 1.98 0 3 C-2.31 3 -4.62 3 -7 3 C-7.33 2.01 -7.66 1.02 -8 0 C-5.13822943 -1.43088528 -3.06624227 -0.59991697 0 0 Z " fill="#75AF53" transform="translate(289,60)"/>
<path d="M0 0 C1.65 0 3.3 0 5 0 C4.67 1.98 4.34 3.96 4 6 C2.68 6 1.36 6 0 6 C0 4.02 0 2.04 0 0 Z " fill="#6FA54F" transform="translate(243,42)"/>
<path d="M0 0 C0.66 0.33 1.32 0.66 2 1 C2 3.31 2 5.62 2 8 C0.68 8 -0.64 8 -2 8 C-1.125 2.25 -1.125 2.25 0 0 Z " fill="#0E4716" transform="translate(303,90)"/>
<path d="M0 0 C0 0.99 0 1.98 0 3 C-1.98 3 -3.96 3 -6 3 C-6 4.98 -6 6.96 -6 9 C-6.33 9 -6.66 9 -7 9 C-7.1875 5.625 -7.1875 5.625 -7 2 C-4 0 -4 0 0 0 Z " fill="#689B4A" transform="translate(150,51)"/>
<path d="M0 0 C0.61875 0.350625 1.2375 0.70125 1.875 1.0625 C2.57625 1.371875 3.2775 1.68125 4 2 C4.66 1.67 5.32 1.34 6 1 C6.33 2.32 6.66 3.64 7 5 C5.02 5 3.04 5 1 5 C0.67 3.35 0.34 1.7 0 0 Z " fill="#135B1B" transform="translate(240,93)"/>
<path d="M0 0 C0.33 0 0.66 0 1 0 C1.33 4.95 1.66 9.9 2 15 C1.01 15.495 1.01 15.495 0 16 C-1.16306443 12.45049966 -0.92365049 9.44176052 -0.5625 5.75 C-0.46066406 4.67234375 -0.35882813 3.5946875 -0.25390625 2.484375 C-0.17011719 1.66453125 -0.08632812 0.8446875 0 0 Z " fill="#689B4A" transform="translate(193,45)"/>
<path d="M0 0 C0.33 0 0.66 0 1 0 C1.1953125 6.0546875 1.1953125 6.0546875 1 8 C0.34 8.66 -0.32 9.32 -1 10 C-1 9.34 -1 8.68 -1 8 C-1.66 8 -2.32 8 -3 8 C-3 6.02 -3 4.04 -3 2 C-2.67 3.32 -2.34 4.64 -2 6 C-1.34 6 -0.68 6 0 6 C0 4.02 0 2.04 0 0 Z " fill="#5B8941" transform="translate(174,48)"/>
<path d="M0 0 C0.66 0 1.32 0 2 0 C2.66 2.31 3.32 4.62 4 7 C3.01 6.01 2.02 5.02 1 4 C0.01 4.66 -0.98 5.32 -2 6 C-2 4.68 -2 3.36 -2 2 C-1.34 2 -0.68 2 0 2 C0 1.34 0 0.68 0 0 Z " fill="#5F8F44" transform="translate(232,42)"/>
<path d="M0 0 C0.99 0 1.98 0 3 0 C3.66 1.65 4.32 3.3 5 5 C4.01 5.66 3.02 6.32 2 7 C0.5393715 4.35261084 0 3.10551666 0 0 Z " fill="#6A9F4B" transform="translate(309,51)"/>
<path d="M0 0 C1.5625 1.75 1.5625 1.75 3 4 C2.6875 6.25 2.6875 6.25 2 8 C0.4375 6.8125 0.4375 6.8125 -1 5 C-0.6875 2.3125 -0.6875 2.3125 0 0 Z " fill="#7AB757" transform="translate(233,45)"/>
<path d="M0 0 C2.78637633 4.1795645 1.79562512 6.14668677 1 11 C0.67 11 0.34 11 0 11 C-0.19491452 9.54263913 -0.38069358 8.08405407 -0.5625 6.625 C-0.66691406 5.81289063 -0.77132813 5.00078125 -0.87890625 4.1640625 C-1 2 -1 2 0 0 Z " fill="#57823E" transform="translate(295,47)"/>
<path d="M0 0 C0.99 0.33 1.98 0.66 3 1 C3 3.31 3 5.62 3 8 C2.34 8 1.68 8 1 8 C0.67 5.36 0.34 2.72 0 0 Z " fill="#7DBA59" transform="translate(171,46)"/>
<path d="M0 0 C0.33 0 0.66 0 1 0 C1 2.64 1 5.28 1 8 C-0.32 7.67 -1.64 7.34 -3 7 C-2.01 4.69 -1.02 2.38 0 0 Z " fill="#0F4A16" transform="translate(270,90)"/>
<path d="M0 0 C0.99 0 1.98 0 3 0 C3 0.66 3 1.32 3 2 C2.01 2 1.02 2 0 2 C0 1.34 0 0.68 0 0 Z " fill="#0E4415" transform="translate(308,87)"/>
</svg>
